<mxfile host="app.diagrams.net" modified="2024-05-26T03:22:45.333Z" agent="Mozilla/5.0 (Macintosh; Intel Mac OS X 10_15_7) AppleWebKit/537.36 (KHTML, like Gecko) Chrome/124.0.0.0 Safari/537.36" etag="Qfg59b-eDQcQJ91NfRon" version="24.4.8" type="github">
  <diagram id="rGnRi5jYEAo9KuGM_sZk" name="Page-1">
    <mxGraphModel dx="656" dy="619" grid="1" gridSize="10" guides="1" tooltips="1" connect="1" arrows="1" fold="1" page="1" pageScale="1" pageWidth="850" pageHeight="1100" math="1" shadow="0">
      <root>
        <mxCell id="0" />
        <mxCell id="1" parent="0" />
        <mxCell id="iOef5EKloiNqDfkYbnr1-12" value="&lt;font face=&quot;Times New Roman&quot; style=&quot;font-size: 14px;&quot;&gt;&lt;font style=&quot;font-size: 14px;&quot;&gt;&lt;font style=&quot;font-size: 14px;&quot;&gt;[Knowledge]&lt;/font&gt;:&amp;nbsp; &amp;nbsp;&amp;nbsp;&lt;font style=&quot;font-size: 14px;&quot;&gt;&lt;font style=&quot;font-size: 14px;&quot; color=&quot;#00994d&quot;&gt;Argentina&lt;/font&gt; won the 2022 World Cup champion.&amp;nbsp;&amp;nbsp;&lt;/font&gt;&lt;br&gt;&lt;/font&gt;&lt;font style=&quot;font-size: 14px;&quot;&gt;&lt;font style=&quot;font-size: 14px;&quot;&gt;&amp;nbsp;[Contexts]&lt;/font&gt;:&amp;nbsp; &amp;nbsp; &amp;nbsp; &amp;nbsp;&lt;font style=&quot;font-size: 14px;&quot;&gt;Which team won the 2022 World Cup champion?&lt;/font&gt;&lt;/font&gt;&lt;/font&gt;" style="text;html=1;align=center;verticalAlign=middle;resizable=0;points=[];autosize=1;strokeColor=none;fillColor=none;" parent="1" vertex="1">
          <mxGeometry x="432.5" y="878" width="390" height="50" as="geometry" />
        </mxCell>
        <mxCell id="iOef5EKloiNqDfkYbnr1-13" value="&lt;font style=&quot;font-size: 14px;&quot;&gt;&lt;font style=&quot;--tw-border-spacing-x: 0; --tw-border-spacing-y: 0; --tw-translate-x: 0; --tw-translate-y: 0; --tw-rotate: 0; --tw-skew-x: 0; --tw-skew-y: 0; --tw-scale-x: 1; --tw-scale-y: 1; --tw-pan-x: ; --tw-pan-y: ; --tw-pinch-zoom: ; --tw-scroll-snap-strictness: proximity; --tw-ordinal: ; --tw-slashed-zero: ; --tw-numeric-figure: ; --tw-numeric-spacing: ; --tw-numeric-fraction: ; --tw-ring-inset: ; --tw-ring-offset-width: 0px; --tw-ring-offset-color: #fff; --tw-ring-color: rgb(59 130 246 / 0.5); --tw-ring-offset-shadow: 0 0 #0000; --tw-ring-shadow: 0 0 #0000; --tw-shadow: 0 0 #0000; --tw-shadow-colored: 0 0 #0000; --tw-blur: ; --tw-brightness: ; --tw-contrast: ; --tw-grayscale: ; --tw-hue-rotate: ; --tw-invert: ; --tw-saturate: ; --tw-sepia: ; --tw-drop-shadow: ; --tw-backdrop-blur: ; --tw-backdrop-brightness: ; --tw-backdrop-contrast: ; --tw-backdrop-grayscale: ; --tw-backdrop-hue-rotate: ; --tw-backdrop-invert: ; --tw-backdrop-opacity: ; --tw-backdrop-saturate: ; --tw-backdrop-sepia: ; border-color: var(--border-color); color: rgb(51, 51, 51); font-family: &amp;quot;Times New Roman&amp;quot;; font-size: 14px;&quot;&gt;The champion is&amp;nbsp;&lt;/font&gt;&lt;font style=&quot;--tw-border-spacing-x: 0; --tw-border-spacing-y: 0; --tw-translate-x: 0; --tw-translate-y: 0; --tw-rotate: 0; --tw-skew-x: 0; --tw-skew-y: 0; --tw-scale-x: 1; --tw-scale-y: 1; --tw-pan-x: ; --tw-pan-y: ; --tw-pinch-zoom: ; --tw-scroll-snap-strictness: proximity; --tw-ordinal: ; --tw-slashed-zero: ; --tw-numeric-figure: ; --tw-numeric-spacing: ; --tw-numeric-fraction: ; --tw-ring-inset: ; --tw-ring-offset-width: 0px; --tw-ring-offset-color: #fff; --tw-ring-color: rgb(59 130 246 / 0.5); --tw-ring-offset-shadow: 0 0 #0000; --tw-ring-shadow: 0 0 #0000; --tw-shadow: 0 0 #0000; --tw-shadow-colored: 0 0 #0000; --tw-blur: ; --tw-brightness: ; --tw-contrast: ; --tw-grayscale: ; --tw-hue-rotate: ; --tw-invert: ; --tw-saturate: ; --tw-sepia: ; --tw-drop-shadow: ; --tw-backdrop-blur: ; --tw-backdrop-brightness: ; --tw-backdrop-contrast: ; --tw-backdrop-grayscale: ; --tw-backdrop-hue-rotate: ; --tw-backdrop-invert: ; --tw-backdrop-opacity: ; --tw-backdrop-saturate: ; --tw-backdrop-sepia: ; border-color: var(--border-color); color: rgb(51, 51, 51); font-family: &amp;quot;Times New Roman&amp;quot;; font-size: 14px;&quot;&gt;&lt;font style=&quot;--tw-border-spacing-x: 0; --tw-border-spacing-y: 0; --tw-translate-x: 0; --tw-translate-y: 0; --tw-rotate: 0; --tw-skew-x: 0; --tw-skew-y: 0; --tw-scale-x: 1; --tw-scale-y: 1; --tw-pan-x: ; --tw-pan-y: ; --tw-pinch-zoom: ; --tw-scroll-snap-strictness: proximity; --tw-ordinal: ; --tw-slashed-zero: ; --tw-numeric-figure: ; --tw-numeric-spacing: ; --tw-numeric-fraction: ; --tw-ring-inset: ; --tw-ring-offset-width: 0px; --tw-ring-offset-color: #fff; --tw-ring-color: rgb(59 130 246 / 0.5); --tw-ring-offset-shadow: 0 0 #0000; --tw-ring-shadow: 0 0 #0000; --tw-shadow: 0 0 #0000; --tw-shadow-colored: 0 0 #0000; --tw-blur: ; --tw-brightness: ; --tw-contrast: ; --tw-grayscale: ; --tw-hue-rotate: ; --tw-invert: ; --tw-saturate: ; --tw-sepia: ; --tw-drop-shadow: ; --tw-backdrop-blur: ; --tw-backdrop-brightness: ; --tw-backdrop-contrast: ; --tw-backdrop-grayscale: ; --tw-backdrop-hue-rotate: ; --tw-backdrop-invert: ; --tw-backdrop-opacity: ; --tw-backdrop-saturate: ; --tw-backdrop-sepia: ; border-color: var(--border-color); font-size: 14px;&quot; color=&quot;#00994d&quot;&gt;Argentina&lt;/font&gt;.&lt;/font&gt;&lt;/font&gt;" style="text;html=1;align=center;verticalAlign=middle;resizable=0;points=[];autosize=1;strokeColor=none;fillColor=none;" parent="1" vertex="1">
          <mxGeometry x="645" y="722" width="180" height="30" as="geometry" />
        </mxCell>
        <mxCell id="iOef5EKloiNqDfkYbnr1-14" value="&lt;font face=&quot;Georgia&quot;&gt;&lt;span style=&quot;font-size: 15px;&quot;&gt;&amp;nbsp; &amp;nbsp; Vanilla&lt;/span&gt;&lt;/font&gt;&lt;div&gt;&lt;font face=&quot;Georgia&quot;&gt;&lt;span style=&quot;font-size: 15px;&quot;&gt;&amp;nbsp; &amp;nbsp;LLM&lt;/span&gt;&lt;/font&gt;&lt;/div&gt;" style="whiteSpace=wrap;html=1;fillColor=#f8cecc;strokeColor=#b85450;" parent="1" vertex="1">
          <mxGeometry x="445.5" y="771" width="104.5" height="89" as="geometry" />
        </mxCell>
        <mxCell id="iOef5EKloiNqDfkYbnr1-18" value="&lt;font style=&quot;font-size: 10px;&quot;&gt;&lt;font style=&quot;font-size: 10px;&quot; face=&quot;Georgia&quot;&gt;Knowledge Enhancement&lt;/font&gt;&lt;/font&gt;&lt;div&gt;&lt;font style=&quot;font-size: 10px;&quot;&gt;&lt;font style=&quot;font-size: 10px;&quot; face=&quot;Georgia&quot;&gt;to&amp;nbsp;&lt;/font&gt;&lt;/font&gt;&lt;font style=&quot;background-color: initial;&quot; face=&quot;Georgia&quot;&gt;Align with&lt;/font&gt;&lt;span style=&quot;background-color: initial;&quot;&gt;&amp;nbsp;&lt;/span&gt;&lt;font style=&quot;background-color: initial;&quot; color=&quot;#00994d&quot; face=&quot;Garamond&quot;&gt;[Argentina]&lt;/font&gt;&lt;/div&gt;" style="text;html=1;align=center;verticalAlign=middle;resizable=0;points=[];autosize=1;strokeColor=none;fillColor=none;fontSize=10;" parent="1" vertex="1">
          <mxGeometry x="551" y="773.42" width="140" height="40" as="geometry" />
        </mxCell>
        <mxCell id="iOef5EKloiNqDfkYbnr1-19" value="&lt;font style=&quot;font-size: 14px;&quot;&gt;&lt;font style=&quot;--tw-border-spacing-x: 0; --tw-border-spacing-y: 0; --tw-translate-x: 0; --tw-translate-y: 0; --tw-rotate: 0; --tw-skew-x: 0; --tw-skew-y: 0; --tw-scale-x: 1; --tw-scale-y: 1; --tw-pan-x: ; --tw-pan-y: ; --tw-pinch-zoom: ; --tw-scroll-snap-strictness: proximity; --tw-ordinal: ; --tw-slashed-zero: ; --tw-numeric-figure: ; --tw-numeric-spacing: ; --tw-numeric-fraction: ; --tw-ring-inset: ; --tw-ring-offset-width: 0px; --tw-ring-offset-color: #fff; --tw-ring-color: rgb(59 130 246 / 0.5); --tw-ring-offset-shadow: 0 0 #0000; --tw-ring-shadow: 0 0 #0000; --tw-shadow: 0 0 #0000; --tw-shadow-colored: 0 0 #0000; --tw-blur: ; --tw-brightness: ; --tw-contrast: ; --tw-grayscale: ; --tw-hue-rotate: ; --tw-invert: ; --tw-saturate: ; --tw-sepia: ; --tw-drop-shadow: ; --tw-backdrop-blur: ; --tw-backdrop-brightness: ; --tw-backdrop-contrast: ; --tw-backdrop-grayscale: ; --tw-backdrop-hue-rotate: ; --tw-backdrop-invert: ; --tw-backdrop-opacity: ; --tw-backdrop-saturate: ; --tw-backdrop-sepia: ; border-color: var(--border-color); color: rgb(51, 51, 51); font-family: &amp;quot;Times New Roman&amp;quot;; font-size: 14px;&quot;&gt;The champion is&amp;nbsp;&lt;/font&gt;&lt;font style=&quot;--tw-border-spacing-x: 0; --tw-border-spacing-y: 0; --tw-translate-x: 0; --tw-translate-y: 0; --tw-rotate: 0; --tw-skew-x: 0; --tw-skew-y: 0; --tw-scale-x: 1; --tw-scale-y: 1; --tw-pan-x: ; --tw-pan-y: ; --tw-pinch-zoom: ; --tw-scroll-snap-strictness: proximity; --tw-ordinal: ; --tw-slashed-zero: ; --tw-numeric-figure: ; --tw-numeric-spacing: ; --tw-numeric-fraction: ; --tw-ring-inset: ; --tw-ring-offset-width: 0px; --tw-ring-offset-color: #fff; --tw-ring-color: rgb(59 130 246 / 0.5); --tw-ring-offset-shadow: 0 0 #0000; --tw-ring-shadow: 0 0 #0000; --tw-shadow: 0 0 #0000; --tw-shadow-colored: 0 0 #0000; --tw-blur: ; --tw-brightness: ; --tw-contrast: ; --tw-grayscale: ; --tw-hue-rotate: ; --tw-invert: ; --tw-saturate: ; --tw-sepia: ; --tw-drop-shadow: ; --tw-backdrop-blur: ; --tw-backdrop-brightness: ; --tw-backdrop-contrast: ; --tw-backdrop-grayscale: ; --tw-backdrop-hue-rotate: ; --tw-backdrop-invert: ; --tw-backdrop-opacity: ; --tw-backdrop-saturate: ; --tw-backdrop-sepia: ; border-color: var(--border-color); font-family: &amp;quot;Times New Roman&amp;quot;; font-size: 14px;&quot;&gt;&lt;font color=&quot;#ff6666&quot; style=&quot;--tw-border-spacing-x: 0; --tw-border-spacing-y: 0; --tw-translate-x: 0; --tw-translate-y: 0; --tw-rotate: 0; --tw-skew-x: 0; --tw-skew-y: 0; --tw-scale-x: 1; --tw-scale-y: 1; --tw-pan-x: ; --tw-pan-y: ; --tw-pinch-zoom: ; --tw-scroll-snap-strictness: proximity; --tw-ordinal: ; --tw-slashed-zero: ; --tw-numeric-figure: ; --tw-numeric-spacing: ; --tw-numeric-fraction: ; --tw-ring-inset: ; --tw-ring-offset-width: 0px; --tw-ring-offset-color: #fff; --tw-ring-color: rgb(59 130 246 / 0.5); --tw-ring-offset-shadow: 0 0 #0000; --tw-ring-shadow: 0 0 #0000; --tw-shadow: 0 0 #0000; --tw-shadow-colored: 0 0 #0000; --tw-blur: ; --tw-brightness: ; --tw-contrast: ; --tw-grayscale: ; --tw-hue-rotate: ; --tw-invert: ; --tw-saturate: ; --tw-sepia: ; --tw-drop-shadow: ; --tw-backdrop-blur: ; --tw-backdrop-brightness: ; --tw-backdrop-contrast: ; --tw-backdrop-grayscale: ; --tw-backdrop-hue-rotate: ; --tw-backdrop-invert: ; --tw-backdrop-opacity: ; --tw-backdrop-saturate: ; --tw-backdrop-sepia: ; border-color: var(--border-color); font-size: 14px;&quot;&gt;France&lt;/font&gt;&lt;font style=&quot;font-size: 14px;&quot; color=&quot;#333333&quot;&gt;.&lt;/font&gt;&lt;/font&gt;&lt;/font&gt;" style="text;html=1;align=center;verticalAlign=middle;resizable=0;points=[];autosize=1;strokeColor=none;fillColor=none;" parent="1" vertex="1">
          <mxGeometry x="424" y="722" width="160" height="30" as="geometry" />
        </mxCell>
        <mxCell id="iOef5EKloiNqDfkYbnr1-23" value="" style="shape=flexArrow;endArrow=classic;html=1;rounded=0;fontFamily=Georgia;fontSize=15;width=8.64864864864865;endSize=1.9063829787234043;endWidth=9.411539198773243;fillColor=#f5f5f5;strokeColor=#666666;" parent="1" edge="1">
          <mxGeometry width="50" height="50" relative="1" as="geometry">
            <mxPoint x="496.26" y="880" as="sourcePoint" />
            <mxPoint x="495.9999999999999" y="867" as="targetPoint" />
          </mxGeometry>
        </mxCell>
        <mxCell id="iOef5EKloiNqDfkYbnr1-24" value="" style="shape=flexArrow;endArrow=classic;html=1;rounded=0;fontFamily=Georgia;fontSize=15;width=8.64864864864865;endSize=1.9063829787234043;endWidth=9.411539198773243;fillColor=#f5f5f5;strokeColor=#666666;" parent="1" edge="1">
          <mxGeometry width="50" height="50" relative="1" as="geometry">
            <mxPoint x="748.09" y="880" as="sourcePoint" />
            <mxPoint x="747.8299999999999" y="867" as="targetPoint" />
          </mxGeometry>
        </mxCell>
        <mxCell id="iOef5EKloiNqDfkYbnr1-26" value="" style="shape=flexArrow;endArrow=classic;html=1;rounded=0;fontFamily=Georgia;fontSize=15;width=8.64864864864865;endSize=1.9063829787234043;endWidth=9.411539198773243;fillColor=#f5f5f5;strokeColor=#666666;" parent="1" edge="1">
          <mxGeometry width="50" height="50" relative="1" as="geometry">
            <mxPoint x="496.5899999999999" y="765" as="sourcePoint" />
            <mxPoint x="496.3299999999998" y="752" as="targetPoint" />
          </mxGeometry>
        </mxCell>
        <mxCell id="iOef5EKloiNqDfkYbnr1-27" value="" style="shape=flexArrow;endArrow=classic;html=1;rounded=0;fontFamily=Georgia;fontSize=15;width=8.64864864864865;endSize=1.9063829787234043;endWidth=9.411539198773243;fillColor=#f5f5f5;strokeColor=#666666;" parent="1" edge="1">
          <mxGeometry width="50" height="50" relative="1" as="geometry">
            <mxPoint x="747.5" y="765" as="sourcePoint" />
            <mxPoint x="747.2399999999999" y="752" as="targetPoint" />
          </mxGeometry>
        </mxCell>
        <mxCell id="iOef5EKloiNqDfkYbnr1-30" value="" style="rounded=0;whiteSpace=wrap;html=1;gradientColor=none;fillColor=none;strokeColor=#FF6666;strokeWidth=1.5;dashed=1;" parent="1" vertex="1">
          <mxGeometry x="531" y="729" width="40" height="16" as="geometry" />
        </mxCell>
        <mxCell id="iOef5EKloiNqDfkYbnr1-31" value="" style="rounded=0;whiteSpace=wrap;html=1;gradientColor=none;fillColor=none;strokeColor=#00994D;strokeWidth=1.5;dashed=1;" parent="1" vertex="1">
          <mxGeometry x="754" y="730" width="57" height="16" as="geometry" />
        </mxCell>
        <mxCell id="iOef5EKloiNqDfkYbnr1-36" value="" style="endArrow=classicThin;html=1;rounded=0;endFill=1;strokeColor=#999999;" parent="1" edge="1">
          <mxGeometry width="50" height="50" relative="1" as="geometry">
            <mxPoint x="566" y="843" as="sourcePoint" />
            <mxPoint x="678" y="843" as="targetPoint" />
          </mxGeometry>
        </mxCell>
        <mxCell id="iOef5EKloiNqDfkYbnr1-37" value="&lt;font style=&quot;font-size: 14px;&quot;&gt;①&amp;nbsp; &lt;/font&gt;&lt;span style=&quot;font-family: &amp;quot;Times New Roman&amp;quot;; font-size: 15px;&quot;&gt;KEFC&lt;/span&gt;" style="text;html=1;align=center;verticalAlign=middle;resizable=0;points=[];autosize=1;strokeColor=none;fillColor=none;" parent="1" vertex="1">
          <mxGeometry x="580" y="752" width="80" height="30" as="geometry" />
        </mxCell>
        <mxCell id="iOef5EKloiNqDfkYbnr1-38" value="&lt;font style=&quot;&quot;&gt;&lt;span style=&quot;font-size: 14px;&quot;&gt;②&amp;nbsp; &lt;/span&gt;&lt;font style=&quot;font-size: 15px;&quot; face=&quot;Times New Roman&quot;&gt;RLFC&lt;/font&gt;&lt;/font&gt;" style="text;html=1;align=center;verticalAlign=middle;resizable=0;points=[];autosize=1;strokeColor=none;fillColor=none;" parent="1" vertex="1">
          <mxGeometry x="580" y="816" width="80" height="30" as="geometry" />
        </mxCell>
        <mxCell id="2lrC8PvG9Sjl19JUl2iO-3" value="&lt;font face=&quot;Georgia&quot;&gt;&lt;span style=&quot;font-size: 15px;&quot;&gt;&amp;nbsp; &amp;nbsp; &amp;nbsp; &amp;nbsp;Aligned&lt;/span&gt;&lt;/font&gt;&lt;div&gt;&lt;font face=&quot;Georgia&quot;&gt;&lt;span style=&quot;font-size: 15px;&quot;&gt;&amp;nbsp; &amp;nbsp; &amp;nbsp; LLM&lt;/span&gt;&lt;/font&gt;&lt;/div&gt;" style="whiteSpace=wrap;html=1;fillColor=#d5e8d4;strokeColor=#82b366;" parent="1" vertex="1">
          <mxGeometry x="698" y="771" width="104.5" height="89" as="geometry" />
        </mxCell>
        <mxCell id="2lrC8PvG9Sjl19JUl2iO-4" value="" style="endArrow=classicThin;html=1;rounded=0;endFill=1;strokeColor=#999999;" parent="1" edge="1">
          <mxGeometry width="50" height="50" relative="1" as="geometry">
            <mxPoint x="564.5" y="779.41" as="sourcePoint" />
            <mxPoint x="676.5" y="779.41" as="targetPoint" />
          </mxGeometry>
        </mxCell>
        <mxCell id="2lrC8PvG9Sjl19JUl2iO-7" value="" style="rounded=0;whiteSpace=wrap;html=1;gradientColor=none;fillColor=none;strokeColor=#00994D;strokeWidth=1.5;dashed=1;" parent="1" vertex="1">
          <mxGeometry x="539" y="887" width="57" height="16" as="geometry" />
        </mxCell>
        <mxCell id="2lrC8PvG9Sjl19JUl2iO-9" value="&lt;font style=&quot;font-size: 10px;&quot;&gt;&lt;font style=&quot;font-size: 10px;&quot; face=&quot;Georgia&quot;&gt;Reinforcement Learning&amp;nbsp;&lt;/font&gt;&lt;/font&gt;&lt;div style=&quot;font-size: 10px;&quot;&gt;&lt;font style=&quot;font-size: 10px;&quot;&gt;&lt;font style=&quot;font-size: 10px;&quot; face=&quot;Georgia&quot;&gt;to Align with&lt;/font&gt;&amp;nbsp;&lt;font style=&quot;font-size: 10px;&quot; color=&quot;#00994d&quot; face=&quot;Garamond&quot;&gt;[Argentina]&lt;/font&gt;&lt;br style=&quot;font-size: 10px;&quot;&gt;&lt;/font&gt;&lt;/div&gt;" style="text;html=1;align=center;verticalAlign=middle;resizable=0;points=[];autosize=1;strokeColor=none;fillColor=none;fontSize=10;" parent="1" vertex="1">
          <mxGeometry x="557" y="836" width="130" height="40" as="geometry" />
        </mxCell>
        <mxCell id="8ZZCMlDSLjnFwBje75Oc-2" value="" style="shape=image;verticalLabelPosition=bottom;labelBackgroundColor=default;verticalAlign=top;aspect=fixed;imageAspect=0;image=data:image/png,iVBORw0KGgoAAAANSUhEUgAAACoAAAAqCAYAAADFw8lbAAAAAXNSR0IArs4c6QAAAIRlWElmTU0AKgAAAAgABQESAAMAAAABAAEAAAEaAAUAAAABAAAASgEbAAUAAAABAAAAUgEoAAMAAAABAAIAAIdpAAQAAAABAAAAWgAAAAAAAACQAAAAAQAAAJAAAAABAAOgAQADAAAAAQABAACgAgAEAAAAAQAAACqgAwAEAAAAAQAAACoAAAAAxiJEngAAAAlwSFlzAAAWJQAAFiUBSVIk8AAACl5JREFUWAnlmFuIXVcZx7+99j7nzC2T6dhMOtR0csG0qaFY1EYq8akiiWgrKBUfqlCh+JaH0milT8GHDEjFB33R9zZYIijEohIwY8GmaVI1l1qaVJIxmUk6ydzPZV/8/b+dMzO0OVqY8yKumXP23mt/l/93XWsds/+3URRFMl8UI1P1+mOXl5qPzGfFM8ePH0+65YdovYIAGM2bDU/NN589NZd9/+Jcbq0itS0DwR4Z7rGNA5W+LVG0vF493bB488xi9sujk439R/61bJfqkeVFZh/vKWzfPYV9576wBMh1O6QbQB8/t5Du/9W1hl1Yyi0NkUVFYVeWI3v1WtN2DVTX60zn7wbQt27UM5tcSt1xoYisapm78EbTjHztCtDQBSl39YRgfXFsocitwieKEFvE1oN3+yvrjrpD7AbQidG+cH7PpsSGARUVZnlWtf6kZp/cWLUdA+F8F5xh6w59FKno7cEjkwtnoyJ/8E/TuS3mwT4zHOzLI8mZJ0YHHu4G0K7JqNeL7S9fXioe/eP7xdZjU8XP35vDt90b3Qi9oyFNBzdXY+uPIvI0spFa3D2USOoa0EbFJutRRsfMAFoYNdXV8R9z9KXL9X3vLjXM0sTUfDoNCfnpO0vhYxXyE5BNqv4yPfVHb8/uS+H9b6MGwWi/2be39h/rRNuxd/zgXOOJmjWOXl5qwRsM/R0HtW740KZbmZ1hCV3Gqs8OFTbam8BXoW2JubOLZcqmnsjqRfjajx8a/PWdFHUE+tQbc8XE1KItoIPKpi+usreZ2lOCqUHgbfl2NlWMRk9vTfLEEoDmawU4dXtdhZc8qSXBvrCpxx6/N3ry66NDR26TrFw6xuX1G4s2jeagNUb9eyXpVuGVUgqjrzudUjSJgBQKNiaxZbSphA1KDNByrRKH+Neayj2OmCUKb802bf89tZch+BDQjsXUoHOnsZTyYZOhIRVtmHpmDfLnjO+UF3qXMat7fIk3mXOQ8iiblQ/wt2UpdUIRLMsia6RtI6RhdXQEmrkX8SetJuFTuCJy1ZdHrUDBcu4LvCEabvQv5/Al6sxCXuBNh2EZ/Sv3tJBKJ3KZHjFPjdwNaRCFO42V0L90ZenA2VsNm6fIpxq5nVhoAlAsZdi0I3I9PCvUuAp1KiEBaSsWtTwND2BFp2cVEya5rBJYDnDBZQ4351hXQL+MYW/PpXbg9M0DVV7sHqrZU9sGfgJjuYSenmk998q15cNv3sqtnuY2T+wWyBkJgp/9ZbAQCL/AMni0KCeY8hZKMnmVeVLTveLeFZ3eIUNcVehbDrysfiQiTvBFQeihld4/XG/aplr8YoA+i1L7zWSj+pV7a+OSb69NN4ofnp0zduggIJ/0kRd4K6AWscp4CFOAJahIrRewlahK0RR2ixxGFaEuQcij6GVGRiAH3mGEFVR2PW3RhoQYAXmMWGQqs0kNTyE5QLRcP9FXtWd3brBvjfWilbGAJcutsjQoVg9VTBgKXrekyG0GMV4trGKjtWAPb6zYSLVq1+qFnZxr2HX2pPJgLMPkebDkfJQ+W3oBlNkLSVKxbYPxoVOE9zo9tyZrPCrKXwoQXaKXcRK0lOGEtFxqHGiOBQqfmCBBhwed8HLvlgpexp+5J/cMs4XbEA6O4dZ3FwlrUjv826uL1pBByBKfC+JrA14c7Q0Hf//5u8eZta9emGs2i3B44madtxntTJ0C7wIV36Aw8WiWWOgUwsUQBQxQYIVCJm+IXnmjFAhojaHNA14hXIMw7h6o2HM7h8af3DIw/vwDA+OfHqpaImOljPfyrHhVgIOVxNogpevQA4Pj9/dVrJd7xZCO5Dzl6kWbwzDlvYpLFuuisQpU0DRLjLy5CzDKXQDNXoWg9tKAZKZRhqMUYTZdb1oGvQrCDeXePcJjM8/s+bM3ftam1XWmBT9eV14qQ+UghV36U2sxw6z0I0YFquGh16Qweu3SGxWCAEhdFcXSAOUBKwiGTMxk9s2T138x1tdr78217Pj0MoBQpjSBTE0+cK+amSEX35i17z3z5q3q3bWKnbnZtJOzDZZaaVMvJvwOqoyEHCMs3hU8Mo6zvcNXuRBaZaHyVMSsSN7UeSYanuQyKMXE84u5vZ8WT7+3uGxzFOG1ZllIslrgNMoLKw08p2Yzm6pnT/cjc6rRsulUSaLCE594lNeqehSxGuq4DQr/eAogzz0qQmUmncs1uGfzFKsqEGOEW6kQEXzMbSGUI7xdJUQpLlSRqSgUQpwBj/JVirSUEn6WxUu0JVZ/UkhSOAhKFh884nwxIFULTQRU4FHIxe8ti2sJ1EnLN3qpEBf0Flcq92O2N3XulTjqEqJTguMXOUES/Vke0rvy6hJQIgPaRhBU3/qpdypPJKHM0RZpoKjm2mMgLaJXupeR50CrWNmD+GqReFG0MCeJ1JDwEszqjbC5D+RdVbSUJ2qUgsWcVGgIvLy4kt/Mqzjlw5byFlrlpPhSvJgIDDRKBsVUvEHN3DWWkeKhBDpSTWxrf+LVWAeEfihqpKgEsICW6hGiHEKAxIz2VGwz8VYqiMKHvAkG96jU68H/OUcBUk1eP0hkWZmb2tQkrECyN8dZAXkDrFY9rISBzr+DXT9zj0m2e7QnDnu/MdZ34qG7mixxkf2zkdmx6brNIiRICk3Ys07CiJYOcHuHqxRGtFeHFDUrF6SvtZ2L53JhYcvH/aeGkhOvXEltBh0FDlAeKqUCgDX6SanE4r29kpaktqES23fHeif0jhmz+wcrE6/NNvcsshtf5uSxSHOvxo2/uDN5r5aRYyWnIRREtCJxFXb0cxtdiJ4+yjj411nCHbsHdQhMWCKV76Xbgw3Ewd750siKzLNrhDpQPT+6sfr6mnnb/uo0j2rimM3VKxKAYqgT/j/PpHbo70unX9jd95F+YHjxQv30kauzdjNvWYt+50mEPOWtfgbSJkjH7E6j45utv5sqppuptwp3IIleFliKV5Wnse3gQDbWl5/fzgZlMKaptJN1jdQWVXVxMbV/LKe7Li62PBop0SnLhXaFh2OAinUbh8FzX9y8hnsV9opHV6fKu7I5lWWktVddr8XV2zDuiCmIS/zyOdmMdp1m81pju8ZLhqJQ6tIjaW4LLOgzNPGamjpy1BtjllYd/ioiklyud0QokYyOQMvXt3VLOBM5lutUyZ3nrXrdEh6bZ2WKKbq2oraRiqRWIM1rSVbHdGMCUWEukqzQclnlWsRkh9ERqARp6LrS4wiTIKcAlqossInGFSE0PdcESG1d65n4/MOkNizKP7Ur9VG1OV/xkFyebsuqb+uE9UOjI1DfB6JEzMntkOuco9/n1SzV99TwCyblNTUwgdS90kOC5dEIj2u/qbaeUukZq0eMwQXXBunSIwNEy2c1Jjx8YHQEGhDqy5c3ba9RWCkutRekqqAi8iyiGapl+WkTpfKqWq8r5kv5qA6UQqO00X2BkVqHqjJAxqIjJn91/u80OgLd2cc5h0qOOH4EhAhBGVR5QLstFRqTjNsrs9/f6Uu0JX15FWcJSUaUccizit3XY/a3Own4X5r7NwrICLQn2nKEAAAAAElFTkSuQmCC;" vertex="1" parent="1">
          <mxGeometry x="449.5" y="797" width="36.58" height="36.58" as="geometry" />
        </mxCell>
        <mxCell id="8ZZCMlDSLjnFwBje75Oc-3" value="" style="shape=image;verticalLabelPosition=bottom;labelBackgroundColor=default;verticalAlign=top;aspect=fixed;imageAspect=0;image=data:image/png,iVBORw0KGgoAAAANSUhEUgAAACoAAAAqCAYAAADFw8lbAAAAAXNSR0IArs4c6QAAAIRlWElmTU0AKgAAAAgABQESAAMAAAABAAEAAAEaAAUAAAABAAAASgEbAAUAAAABAAAAUgEoAAMAAAABAAIAAIdpAAQAAAABAAAAWgAAAAAAAACQAAAAAQAAAJAAAAABAAOgAQADAAAAAQABAACgAgAEAAAAAQAAACqgAwAEAAAAAQAAACoAAAAAxiJEngAAAAlwSFlzAAAWJQAAFiUBSVIk8AAACl5JREFUWAnlmFuIXVcZx7+99j7nzC2T6dhMOtR0csG0qaFY1EYq8akiiWgrKBUfqlCh+JaH0milT8GHDEjFB33R9zZYIijEohIwY8GmaVI1l1qaVJIxmUk6ydzPZV/8/b+dMzO0OVqY8yKumXP23mt/l/93XWsds/+3URRFMl8UI1P1+mOXl5qPzGfFM8ePH0+65YdovYIAGM2bDU/NN589NZd9/+Jcbq0itS0DwR4Z7rGNA5W+LVG0vF493bB488xi9sujk439R/61bJfqkeVFZh/vKWzfPYV9576wBMh1O6QbQB8/t5Du/9W1hl1Yyi0NkUVFYVeWI3v1WtN2DVTX60zn7wbQt27UM5tcSt1xoYisapm78EbTjHztCtDQBSl39YRgfXFsocitwieKEFvE1oN3+yvrjrpD7AbQidG+cH7PpsSGARUVZnlWtf6kZp/cWLUdA+F8F5xh6w59FKno7cEjkwtnoyJ/8E/TuS3mwT4zHOzLI8mZJ0YHHu4G0K7JqNeL7S9fXioe/eP7xdZjU8XP35vDt90b3Qi9oyFNBzdXY+uPIvI0spFa3D2USOoa0EbFJutRRsfMAFoYNdXV8R9z9KXL9X3vLjXM0sTUfDoNCfnpO0vhYxXyE5BNqv4yPfVHb8/uS+H9b6MGwWi/2be39h/rRNuxd/zgXOOJmjWOXl5qwRsM/R0HtW740KZbmZ1hCV3Gqs8OFTbam8BXoW2JubOLZcqmnsjqRfjajx8a/PWdFHUE+tQbc8XE1KItoIPKpi+usreZ2lOCqUHgbfl2NlWMRk9vTfLEEoDmawU4dXtdhZc8qSXBvrCpxx6/N3ry66NDR26TrFw6xuX1G4s2jeagNUb9eyXpVuGVUgqjrzudUjSJgBQKNiaxZbSphA1KDNByrRKH+Neayj2OmCUKb802bf89tZch+BDQjsXUoHOnsZTyYZOhIRVtmHpmDfLnjO+UF3qXMat7fIk3mXOQ8iiblQ/wt2UpdUIRLMsia6RtI6RhdXQEmrkX8SetJuFTuCJy1ZdHrUDBcu4LvCEabvQv5/Al6sxCXuBNh2EZ/Sv3tJBKJ3KZHjFPjdwNaRCFO42V0L90ZenA2VsNm6fIpxq5nVhoAlAsZdi0I3I9PCvUuAp1KiEBaSsWtTwND2BFp2cVEya5rBJYDnDBZQ4351hXQL+MYW/PpXbg9M0DVV7sHqrZU9sGfgJjuYSenmk998q15cNv3sqtnuY2T+wWyBkJgp/9ZbAQCL/AMni0KCeY8hZKMnmVeVLTveLeFZ3eIUNcVehbDrysfiQiTvBFQeihld4/XG/aplr8YoA+i1L7zWSj+pV7a+OSb69NN4ofnp0zduggIJ/0kRd4K6AWscp4CFOAJahIrRewlahK0RR2ixxGFaEuQcij6GVGRiAH3mGEFVR2PW3RhoQYAXmMWGQqs0kNTyE5QLRcP9FXtWd3brBvjfWilbGAJcutsjQoVg9VTBgKXrekyG0GMV4trGKjtWAPb6zYSLVq1+qFnZxr2HX2pPJgLMPkebDkfJQ+W3oBlNkLSVKxbYPxoVOE9zo9tyZrPCrKXwoQXaKXcRK0lOGEtFxqHGiOBQqfmCBBhwed8HLvlgpexp+5J/cMs4XbEA6O4dZ3FwlrUjv826uL1pBByBKfC+JrA14c7Q0Hf//5u8eZta9emGs2i3B44madtxntTJ0C7wIV36Aw8WiWWOgUwsUQBQxQYIVCJm+IXnmjFAhojaHNA14hXIMw7h6o2HM7h8af3DIw/vwDA+OfHqpaImOljPfyrHhVgIOVxNogpevQA4Pj9/dVrJd7xZCO5Dzl6kWbwzDlvYpLFuuisQpU0DRLjLy5CzDKXQDNXoWg9tKAZKZRhqMUYTZdb1oGvQrCDeXePcJjM8/s+bM3ftam1XWmBT9eV14qQ+UghV36U2sxw6z0I0YFquGh16Qweu3SGxWCAEhdFcXSAOUBKwiGTMxk9s2T138x1tdr78217Pj0MoBQpjSBTE0+cK+amSEX35i17z3z5q3q3bWKnbnZtJOzDZZaaVMvJvwOqoyEHCMs3hU8Mo6zvcNXuRBaZaHyVMSsSN7UeSYanuQyKMXE84u5vZ8WT7+3uGxzFOG1ZllIslrgNMoLKw08p2Yzm6pnT/cjc6rRsulUSaLCE594lNeqehSxGuq4DQr/eAogzz0qQmUmncs1uGfzFKsqEGOEW6kQEXzMbSGUI7xdJUQpLlSRqSgUQpwBj/JVirSUEn6WxUu0JVZ/UkhSOAhKFh884nwxIFULTQRU4FHIxe8ti2sJ1EnLN3qpEBf0Flcq92O2N3XulTjqEqJTguMXOUES/Vke0rvy6hJQIgPaRhBU3/qpdypPJKHM0RZpoKjm2mMgLaJXupeR50CrWNmD+GqReFG0MCeJ1JDwEszqjbC5D+RdVbSUJ2qUgsWcVGgIvLy4kt/Mqzjlw5byFlrlpPhSvJgIDDRKBsVUvEHN3DWWkeKhBDpSTWxrf+LVWAeEfihqpKgEsICW6hGiHEKAxIz2VGwz8VYqiMKHvAkG96jU68H/OUcBUk1eP0hkWZmb2tQkrECyN8dZAXkDrFY9rISBzr+DXT9zj0m2e7QnDnu/MdZ34qG7mixxkf2zkdmx6brNIiRICk3Ys07CiJYOcHuHqxRGtFeHFDUrF6SvtZ2L53JhYcvH/aeGkhOvXEltBh0FDlAeKqUCgDX6SanE4r29kpaktqES23fHeif0jhmz+wcrE6/NNvcsshtf5uSxSHOvxo2/uDN5r5aRYyWnIRREtCJxFXb0cxtdiJ4+yjj411nCHbsHdQhMWCKV76Xbgw3Ewd750siKzLNrhDpQPT+6sfr6mnnb/uo0j2rimM3VKxKAYqgT/j/PpHbo70unX9jd95F+YHjxQv30kauzdjNvWYt+50mEPOWtfgbSJkjH7E6j45utv5sqppuptwp3IIleFliKV5Wnse3gQDbWl5/fzgZlMKaptJN1jdQWVXVxMbV/LKe7Li62PBop0SnLhXaFh2OAinUbh8FzX9y8hnsV9opHV6fKu7I5lWWktVddr8XV2zDuiCmIS/zyOdmMdp1m81pju8ZLhqJQ6tIjaW4LLOgzNPGamjpy1BtjllYd/ioiklyud0QokYyOQMvXt3VLOBM5lutUyZ3nrXrdEh6bZ2WKKbq2oraRiqRWIM1rSVbHdGMCUWEukqzQclnlWsRkh9ERqARp6LrS4wiTIKcAlqossInGFSE0PdcESG1d65n4/MOkNizKP7Ur9VG1OV/xkFyebsuqb+uE9UOjI1DfB6JEzMntkOuco9/n1SzV99TwCyblNTUwgdS90kOC5dEIj2u/qbaeUukZq0eMwQXXBunSIwNEy2c1Jjx8YHQEGhDqy5c3ba9RWCkutRekqqAi8iyiGapl+WkTpfKqWq8r5kv5qA6UQqO00X2BkVqHqjJAxqIjJn91/u80OgLd2cc5h0qOOH4EhAhBGVR5QLstFRqTjNsrs9/f6Uu0JX15FWcJSUaUccizit3XY/a3Own4X5r7NwrICLQn2nKEAAAAAElFTkSuQmCC;" vertex="1" parent="1">
          <mxGeometry x="701" y="796.42" width="36.58" height="36.58" as="geometry" />
        </mxCell>
      </root>
    </mxGraphModel>
  </diagram>
</mxfile>
